<?xml version="1.0" encoding="utf-8"?><!DOCTYPE svg PUBLIC "-//W3C//DTD SVG 1.1//EN" "http://www.w3.org/Graphics/SVG/1.1/DTD/svg11.dtd"><svg version="1.1" baseProfile="full" xmlns="http://www.w3.org/2000/svg" xmlns:xlink="http://www.w3.org/1999/xlink" xmlns:ev="http://www.w3.org/2001/xml-events"   height="57px"   width="47px" ><path fill="rgb( 83, 83, 83 )" d="M0,0 C11.726,0 24.274,0 36,0 C36,1.693 36,4.307 36,6 C37.493,6.023 38.835,6.022 41,6 C41,7.693 41,9.307 41,11 C42.471,11.029 44.835,11.022 47,11 C47,26.046 47,41.954 47,57 C31.492,57 15.508,57 0,57 C0,38.192 0,18.808 0,0 ZM6,6 C6,21.046 6,35.954 6,51 C17.726,51 29.274,51 41,51 C41,41.22 41,31.78 41,22 C35.515,22 29.485,22 24,22 C24,16.734 24,11.266 24,6 C17.759,6 12.241,6 6,6 ZM31,6 C31,9.385 30.985,12.619 30.985,16.005 C34.39,16.005 37.596,16 41,16 C41,14.683 41,12.317 41,11 C39.648,10.965 38.165,10.978 36,11 C36,9.307 36,7.693 36,6 C34.831,5.971 32.887,6.004 31,6 ZM11,13 C13.27,13 14.73,13 17,13 C17,16.009 17,17.991 17,21 C14.73,21 13.27,21 11,21 C11,17.991 11,16.009 11,13 ZM20,35 C23.404,35 26.596,35 30,35 C30,36.317 30,38.683 30,40 C31.537,39.98 32.835,40.022 35,40 C35,41.881 35,43.119 35,45 C33.109,45 31.891,45 30,45 C30,43.307 30,41.693 30,40 C27.604,39.961 23.21,39.958 20,40 C19.995,41.382 19.978,42.847 20,45 C18.109,45 15.891,45 14,45 C14,43.119 14,41.881 14,40 C15.702,40 18.298,40 20,40 C20.189,39.812 19.811,40.188 20,40 C20,38.683 20,36.317 20,35 Z "/></svg>