<?xml version="1.0" encoding="utf-8"?><!DOCTYPE svg PUBLIC "-//W3C//DTD SVG 1.1//EN" "http://www.w3.org/Graphics/SVG/1.1/DTD/svg11.dtd"><svg version="1.1" baseProfile="full" xmlns="http://www.w3.org/2000/svg" xmlns:xlink="http://www.w3.org/1999/xlink" xmlns:ev="http://www.w3.org/2001/xml-events"   height="22px"   width="32px" ><path fill="rgb( 83, 83, 83 )" d="M16,0 C18.666,0 21.334,0 24,0 C24,0.341 24,0.659 24,1 C24.333,1 24.667,1 25,1 C25,2.535 25,4.465 25,6 C23.334,6 21.666,6 20,6 C20,6.341 20,6.659 20,7 C21,7 22,7 23,7 C23,7.341 23,7.659 23,8 C21.667,8 20.333,8 19,8 C19,8.682 19,9.318 19,10 C19.667,10 20.333,10 21,10 C21,10.682 21,11.318 21,12 C20.667,12 20.333,12 20,12 C20,11.659 20,11.341 20,11 C19.667,11 19.333,11 19,11 C19,12.194 19,12.806 19,14 C18.667,14 18.333,14 18,14 C18,14.512 18,15.488 18,16 C17.667,16 17.333,16 17,16 C17,16.341 17,16.659 17,17 C16.667,17 16.333,17 16,17 C16,18.364 16,19.665 16,21.029 C16.333,21.029 16.667,21 17,21 C17,21.341 17,21.659 17,22 C16.333,22 15.667,22 15,22 C15,20.977 15,20.023 15,19 C14.667,19 14.333,19 14,19 C14,18.659 14,18.341 14,18 C13.667,18 13.333,18 13,18 C13,18.341 13,18.659 13,19 C12.667,19 12.333,19 12,19 C12,19.341 12,19.659 12,20 C11.667,20 11.333,20 11,20 C11,20.341 11,20.659 11,21 C11.333,21 11.667,21 12,21 C12,21.341 11.974,21.659 11.974,22 C11.307,22 10.667,22 10,22 C10,20.636 10,19.364 10,18 C9.667,18 9.333,18 9,18 C9,17.659 9,17.341 9,17 C8.667,17 8.333,17 8,17 C8,16.659 8,16.341 8,16 C7.667,16 7.333,16 7,16 C7,15.659 7,15.341 7,15 C6.667,15 6.333,15 6,15 C6,14.659 6,14.341 6,14 C5.667,14 5.333,14 5,14 C5,11.954 5,10.046 5,8 C5.333,8 5.667,8 6,8 C6,8.682 6,9.318 6,10 C6.333,10 6.667,10 7,10 C7,10.341 7,10.659 7,11 C7.333,11 7.667,11 8,11 C8,11.341 8,11.659 8,12 C8.667,12 9.333,12 10,12 C10,11.659 10,11.341 10,11 C10.333,11 10.667,11 11,11 C11,10.659 11,10.341 11,10 C11.5,10 12.5,10 13,10 C13,9.659 13,9.341 13,9 C13.5,9 13.5,9 14,9 C14,8.659 14,8.341 14,8 C14.333,8 14.667,8 15,8 C15,5.783 15,3.217 15,1 C15.333,1 15.667,1 16,1 C16,0.659 16,0.341 16,0 ZM17,1 C17,1.341 17,2.659 17,3 C17.333,3 17.667,3 18,3 C18,2.659 18,1.341 18,1 C17.667,1 17.333,1 17,1 ZM0,18 C2.666,18 5.334,18 8,18 C8,18.171 8,18.829 8,19 C5.334,19 2.666,19 0,19 C0,18.829 0,18.171 0,18 ZM18.013,17.902 C22.679,17.902 27.334,17.902 32,17.902 C32,18.072 32,18.829 32,19 C27.334,19 22.666,19 18,19 C18,18.829 18.013,18.072 18.013,17.902 ZM27,19 C27.5,19 28.5,19 29,19 C29,19.171 29,19.829 29,20 C28.5,20 27.5,20 27,20 C27,19.829 27,19.171 27,19 ZM3,20 C3.667,20 4.314,19.951 4.98,19.951 C4.98,20.122 5,20.829 5,21 C4.333,21 3.667,21 3,21 C3,20.829 3,20.171 3,20 ZM0,21 C0.667,21 1.333,21 2,21 C2,21.171 2.013,21.829 2.013,22 C1.347,22 0.667,22 0,22 C0,21.829 0,21.171 0,21 ZM7,21 C7.333,21 7.667,21 8,21 C8,21.171 8,21.829 8,22 C7.667,22 7.333,22 7,22 C7,21.829 7,21.171 7,21 ZM24,21 C24.667,21 25.333,21 26,21 C26,21.171 26,21.829 26,22 C25.333,22 24.667,22 24,22 C24,21.829 24,21.171 24,21 Z "/></svg>