<?xml version="1.0" encoding="utf-8"?><!DOCTYPE svg PUBLIC "-//W3C//DTD SVG 1.1//EN" "http://www.w3.org/Graphics/SVG/1.1/DTD/svg11.dtd"><svg version="1.1" baseProfile="full" xmlns="http://www.w3.org/2000/svg" xmlns:xlink="http://www.w3.org/1999/xlink" xmlns:ev="http://www.w3.org/2001/xml-events"   height="204px"   width="302px" ><path stroke="rgb( 0, 0, 0 )" stroke-width="0px" stroke-linecap="butt" stroke-linejoin="miter" fill="rgb( 83, 83, 83 )" d="M151,0 C176.164,0 200.836,0 226,0 C226,3.16200000000001 226,6.83799999999999 226,10 C229.146,10 232.854,10 236,10 C236,24.231 236,37.769 236,52 C220.272,52 203.728,52 188,52 C188,55.162 188,58.838 188,62 C197.437,62 207.563,62 217,62 C217,65.162 217,67.838 217,71 C204.418,71 192.582,71 180,71 C180,77.325 180,83.675 180,90 C186.291,90 191.709,90 198,90 C198,96.325 198,102.675 198,109 C194.854,109 192.146,109 189,109 C189,105.838 189,102.162 189,99 C185.854,99 182.146,99 179,99 C179,110.069 179,120.931 179,132 C175.854,132 172.146,132 169,132 C169,136.744 169,142.256 169,147 C165.854,147 163.146,147 160,147 C160,150.162 160,152.838 160,156 C156.854,156 154.146,156 151,156 C151,168.65 151,182.35 151,195 C154.146,195 156.854,195 160,195 C160,198.162 160,200.838 160,204 C153.709,204 148.291,204 142,204 C142,194.513 142,184.487 142,175 C138.854,175 136.146,175 133,175 C133,171.838 133,169.162 133,166 C129.854,166 125.146,166 122,166 C122,169.162 122,171.838 122,175 C118.854,175 116.146,175 113,175 C113,178.162 113,181.838 113,185 C109.854,185 106.146,185 103,185 C103,188.162 103,191.838 103,195 C106.146,195 109.854,195 113,195 C113,198.162 113,200.838 113,204 C106.709,204 101.291,204 95,204 C95,191.35 95,177.65 95,165 C91.854,165 88.146,165 85,165 C85,161.838 85,159.162 85,156 C81.854,156 79.146,156 76,156 C76,152.838 76,149.162 76,146 C72.854,146 69.146,146 66,146 C66,142.838 66,140.162 66,137 C62.854,137 60.146,137 57,137 C57,133.838 57,131.162 57,128 C53.854,128 51.146,128 48,128 C48,109.025 48,90.975 48,72 C51.146,72 52.854,72 56,72 C56,78.325 56,84.675 56,91 C59.146,91 62.854,91 66,91 C66,94.162 66,96.838 66,100 C69.146,100 71.854,100 75,100 C75,103.162 75,106.838 75,110 C81.291,110 88.709,110 95,110 C95,106.838 95,103.162 95,100 C98.146,100 100.854,100 104,100 C104,96.838 104,94.162 104,91 C108.718,91 113.282,91 118,91 C118,87.838 118,84.162 118,81 C122.718,81 128.282,81 133,81 C133,77.838 133,75.162 133,72 C136.146,72 138.854,72 142,72 C142,51.444 142,30.556 142,10 C145.146,10 147.854,10 151,10 C151,6.83799999999999 151,3.16200000000001 151,0 ZM160,14 C160,17.162 160,20.838 160,24 C163.146,24 166.854,24 170,24 C170,20.838 170,17.162 170,14 C166.854,14 163.146,14 160,14 ZM0,166.047 C25.164,166.047 49.836,166 75,166 C75,167.581 75,169.419 75,171 C49.836,171 25.164,171 0,171 C0,169.419 0,167.628 0,166.047 ZM170,166 C214.037,166 257.963,166 302,166 C302,167.581 302,169.419 302,171 C257.963,171 214.037,171 170,171 C170,169.419 170,167.581 170,166 ZM259,180 C263.718,180 269.282,180 274,180 C274,181.581 274,183.419 274,185 C269.282,185 263.718,185 259,185 C259,183.419 259,181.581 259,180 ZM29,185 C35.291,185 40.709,185 47,185 C47,186.581 47,187.419 47,189 C40.709,189 35.291,189 29,189 C29,187.419 29,186.581 29,185 ZM194,195 C195.573,195 196.427,195 198,195 C198,196.581 198,197.419 198,199 C196.427,199 195.573,199 194,199 C194,197.419 194,196.581 194,195 ZM0,199 C6.291,199 12.709,199 19,199 C19,200.581 19,202.419 19,204 C12.709,204 6.291,204 0,204 C0,202.419 0,200.581 0,199 ZM66,200 C69.146,200 71.854,200 75,200 C75,201.581 75,202.419 75,204 C71.854,204 69.208,204 66.063,204 C66.063,202.419 66,201.581 66,200 ZM227,199 C233.291,199 238.709,199 245,199 C245,200.581 245,202.419 245,204 C238.709,204 233.291,204 227,204 C227,202.419 227,200.581 227,199 Z "/></svg>